<svg width="1200" height="760" viewBox="0 0 1200 760" fill="none" xmlns="http://www.w3.org/2000/svg" role="img" aria-labelledby="title desc">
  <title id="title">Industrial facility team reviewing operations</title>
  <desc id="desc">Stylized illustration of an industrial facility with operators reviewing materials and performance dashboards.</desc>
  <defs>
    <linearGradient id="bg" x1="110" y1="42" x2="1050" y2="718" gradientUnits="userSpaceOnUse">
      <stop stop-color="#22375A"/>
      <stop offset="1" stop-color="#10213B"/>
    </linearGradient>
    <linearGradient id="panel" x1="150" y1="200" x2="1060" y2="610" gradientUnits="userSpaceOnUse">
      <stop stop-color="#2A4572"/>
      <stop offset="1" stop-color="#162B4C"/>
    </linearGradient>
    <linearGradient id="accent" x1="260" y1="230" x2="850" y2="600" gradientUnits="userSpaceOnUse">
      <stop stop-color="#4DD1C4"/>
      <stop offset="1" stop-color="#89A6FF"/>
    </linearGradient>
  </defs>

  <rect x="0" y="0" width="1200" height="760" rx="28" fill="url(#bg)"/>
  <rect x="52" y="64" width="1096" height="632" rx="24" fill="url(#panel)" stroke="#35517E"/>

  <rect x="108" y="124" width="438" height="248" rx="14" fill="#11223D" stroke="#35517E"/>
  <path d="M152 328L232 284L300 306L394 228L500 256" stroke="url(#accent)" stroke-width="10" stroke-linecap="round" stroke-linejoin="round"/>
  <circle cx="232" cy="284" r="8" fill="#4DD1C4"/>
  <circle cx="394" cy="228" r="8" fill="#89A6FF"/>
  <rect x="152" y="164" width="124" height="16" rx="8" fill="#2D4C77"/>
  <rect x="152" y="196" width="184" height="12" rx="6" fill="#2A4572"/>

  <rect x="590" y="124" width="500" height="248" rx="14" fill="#122743" stroke="#35517E"/>
  <rect x="638" y="178" width="164" height="24" rx="12" fill="#2D4C77"/>
  <rect x="638" y="222" width="404" height="14" rx="7" fill="#31517E"/>
  <rect x="638" y="252" width="354" height="14" rx="7" fill="#2C4A74"/>
  <rect x="638" y="282" width="294" height="14" rx="7" fill="#29456B"/>

  <g>
    <circle cx="268" cy="510" r="52" fill="#89A6FF" fill-opacity="0.26"/>
    <circle cx="268" cy="484" r="20" fill="#D8E5FF"/>
    <rect x="230" y="504" width="76" height="78" rx="24" fill="#D8E5FF"/>
  </g>
  <g>
    <circle cx="414" cy="516" r="56" fill="#4DD1C4" fill-opacity="0.26"/>
    <circle cx="414" cy="486" r="22" fill="#E2FFFB"/>
    <rect x="370" y="510" width="88" height="80" rx="26" fill="#E2FFFB"/>
  </g>

  <rect x="540" y="446" width="560" height="160" rx="16" fill="#10223C" stroke="#33517A"/>
  <rect x="580" y="486" width="210" height="26" rx="13" fill="#365886"/>
  <rect x="580" y="526" width="468" height="16" rx="8" fill="#30507D"/>
  <rect x="580" y="556" width="418" height="16" rx="8" fill="#2A476F"/>

  <circle cx="1038" cy="168" r="36" fill="#4DD1C4" fill-opacity="0.25"/>
  <circle cx="984" cy="614" r="48" fill="#89A6FF" fill-opacity="0.22"/>
</svg>
