<svg xmlns="http://www.w3.org/2000/svg" viewBox="0 0 240 240" role="img" aria-labelledby="title desc">
  <title id="title">The Scrap Company logo</title>
  <desc id="desc">Circular emblem with an S monogram and recycling arrows</desc>
  <defs>
    <linearGradient id="g" x1="0" y1="0" x2="1" y2="1">
      <stop offset="0" stop-color="#c8a646"/>
      <stop offset="1" stop-color="#6f1d1b"/>
    </linearGradient>
  </defs>
  <circle cx="120" cy="120" r="110" fill="#111111"/>
  <circle cx="120" cy="120" r="94" fill="none" stroke="url(#g)" stroke-width="12"/>
  <path d="M90 80c10-12 28-18 43-12 11 4 19 13 23 24" fill="none" stroke="#c8a646" stroke-width="10" stroke-linecap="round"/>
  <path d="M157 89l-7 17 18-3" fill="#c8a646"/>
  <path d="M150 160c-10 12-28 18-43 12-11-4-19-13-23-24" fill="none" stroke="#6f1d1b" stroke-width="10" stroke-linecap="round"/>
  <path d="M83 151l7-17-18 3" fill="#6f1d1b"/>
  <path d="M138 73c-6-4-13-6-21-6-20 0-36 11-36 26 0 32 56 13 56 38 0 8-8 14-20 14-11 0-21-4-28-11" fill="none" stroke="#ffffff" stroke-width="10" stroke-linecap="round" stroke-linejoin="round"/>
</svg>
